<?xml version="1.0" encoding="utf-8"?>
<!-- Generator: Adobe Illustrator 21.0.0, SVG Export Plug-In . SVG Version: 6.00 Build 0)  -->
<svg version="1.1" id="Capa_1" xmlns="http://www.w3.org/2000/svg" xmlns:xlink="http://www.w3.org/1999/xlink" x="0px" y="0px"
	 viewBox="0 0 250.3 250.3" style="enable-background:new 0 0 250.3 250.3;" xml:space="preserve">
<style type="text/css">
	.st0{fill:#FFFFFF;}
</style>
<g id="Search">
	<path class="st0" d="M244.2,214.6l-54.4-54.4c-0.3-0.3-0.6-0.5-0.9-0.8c10.7-16.2,16.9-35.7,16.9-56.6C205.8,46.1,159.7,0,102.9,0
		S0,46.1,0,102.9c0,56.8,46.1,102.9,102.9,102.9c20.9,0,40.3-6.2,56.6-16.9c0.3,0.3,0.5,0.6,0.8,0.9l54.4,54.4
		c8.2,8.2,21.4,8.2,29.6,0C252.4,236,252.4,222.8,244.2,214.6z M102.9,170.1c-37.1,0-67.2-30.1-67.2-67.2
		c0-37.1,30.1-67.2,67.2-67.2c37.1,0,67.2,30.1,67.2,67.2S140,170.1,102.9,170.1z"/>
</g>
</svg>
