<?xml version="1.0" encoding="utf-8"?>
<!-- Generator: Adobe Illustrator 21.0.0, SVG Export Plug-In . SVG Version: 6.00 Build 0)  -->
<svg version="1.1" id="圖層_1" xmlns="http://www.w3.org/2000/svg" xmlns:xlink="http://www.w3.org/1999/xlink" x="0px" y="0px"
	 viewBox="0 0 100 100" style="enable-background:new 0 0 100 100;" xml:space="preserve">
<style type="text/css">
	.st0{fill:#FFFFFF;}
</style>
<g>
	<g id="XMLID_1_">
		<g>
			<path class="st0" d="M94.4,19.8c3.6,3.1,4,6.9,1.3,10.9c-1.1,1.6-2.4,3-3.7,4.4c-2.3,2.3-4.6,4.6-6.9,6.8
				c-3.8,3.5-7.5,3.1-10.1-1.3c-1.6-2.8-3-5.7-4.6-8.7c0.9-0.6,1.6-1.1,2.5-1.7c3.2,3.2,3.6,8,7.6,11.1c4.6-4.4,9.8-8.1,13-13.7
				c1.1-1.8,0.7-3.5-1.3-5c-1.8-1.4-3.8-2.6-5.9-3.4c-7.1-2.7-14.2-5.2-21.9-5.5c-0.6,0-1.2-0.2-1.9-0.4c0-1,0-1.8,0-2.9
				c3.4-0.6,6.6,0,9.7,0.8c5.6,1.5,11.1,3.2,16.5,5.2C90.7,17,92.7,18.3,94.4,19.8z"/>
			<path class="st0" d="M83.1,80.3c0.1-3.2-0.8-4.8-2.8-4.8c-1.3,0-2.4,0.6-3.1,1.7c-0.6,0.9-0.9,2-0.9,3.2s0.4,2.1,1.1,2.8
				c0.6,0.6,1.3,0.8,2.1,0.8c0.9,0,1.8-0.3,2.4-0.9C82.6,82.4,83,81.5,83.1,80.3z M84.5,75.3c0.7,1.2,1.1,2.7,1.1,4.4
				c0,1.8-0.5,3.4-1.6,4.7c-1.2,1.5-2.7,2.2-4.6,2.2c-1.5,0-2.8-0.5-3.9-1.5c-1.2-1.2-1.9-2.7-1.9-4.6c-0.1-1.9,0.5-3.5,1.5-4.9
				c1.3-1.7,3-2.5,5.3-2.5C82.2,73,83.6,73.7,84.5,75.3z"/>
			<path class="st0" d="M65.2,35.4c0,1.7-1.5,3.1-3.3,3c-1.7-0.1-2.8-1.4-2.7-3.1c0.1-1.7,1.4-2.9,3-2.9
				C63.8,32.5,65.2,33.9,65.2,35.4z"/>
			<path class="st0" d="M68.1,80.1c0.2-0.9,0.4-2.3,0.6-4.2c-0.4-0.3-0.7-0.4-1.1-0.6c-0.4-0.1-0.8-0.2-1.2-0.2c-1.7,0-3,0.5-4,1.6
				c-0.8,1-1.3,2.2-1.3,3.7c0,1.2,0.3,2.1,0.7,2.7c0.5,0.6,1.3,0.9,2.2,0.9c0.9,0,1.8-0.5,2.7-1.4C67.6,81.8,68,81,68.1,80.1z
				 M60,84.7c-1-1-1.5-2.3-1.5-4c0-2.2,0.7-4,2.1-5.4c1.4-1.4,3.4-2.1,5.9-2.1c0.8,0,1.5,0.1,2.1,0.3c0.6,0.2,1,0.5,1.3,0.9
				c1,0,1.4,0.5,1.4,1.5c0,0.6-0.1,1.4-0.3,2.4c-0.2,1.1-0.3,1.9-0.4,2.3l-0.3,4.2c0,1.7-0.2,3-0.5,4.1c-0.4,1.3-1.1,2.3-2,3
				c-1.1,0.8-2.7,1.2-4.7,1.2c-1.2,0-2.2-0.1-3-0.2c-1.1-0.2-1.7-0.6-1.7-1.3c0-0.7,0.4-1.1,1.2-1.1c0.3,0,0.9,0.1,1.6,0.2
				c0.8,0.1,1.6,0.2,2.5,0.2c1.7,0,2.9-0.8,3.6-2.3c0.4-1,0.7-2.6,0.7-4.7c-0.5,0.8-1.1,1.5-1.7,1.9c-0.7,0.4-1.4,0.6-2.3,0.6
				C62.4,86.2,61.1,85.7,60,84.7z"/>
			<path class="st0" d="M58.6,56.7c0,0.7-0.1,1.5-0.1,2.4c-3.8,0.8-5.9-1.6-8.4-3.5c-2.4,1.9-4.6,4.1-8.2,3.6
				c-0.1-0.9-0.2-1.8-0.3-2.5c1.8-0.9,3.4-1.7,4.6-2.3c-0.1-2-0.4-3.5-0.2-4.9c0.1-0.8,1-1.6,1.8-2.2c1.5-1.1,3.5-1,5,0.2
				c1.8,1.3,2,3,0.8,6.7C55.3,55,56.9,55.8,58.6,56.7z"/>
			<path class="st0" d="M53.7,80.3c0.1-3.2-0.8-4.8-2.8-4.8c-1.3,0-2.4,0.6-3.1,1.7c-0.6,0.9-0.9,2-0.9,3.2s0.4,2.1,1.1,2.8
				c0.6,0.6,1.3,0.8,2.1,0.8c0.9,0,1.7-0.3,2.4-0.9C53.2,82.4,53.6,81.5,53.7,80.3z M56.2,79.7c0,1.8-0.5,3.4-1.6,4.7
				c-1.2,1.5-2.7,2.2-4.6,2.2c-1.5,0-2.8-0.5-3.9-1.5c-1.2-1.2-1.9-2.7-1.9-4.6s0.5-3.5,1.6-4.9c1.3-1.7,3-2.5,5.3-2.5
				c1.8,0,3.2,0.8,4.1,2.3C55.9,76.5,56.2,78,56.2,79.7z"/>
			<path class="st0" d="M41.2,35.5c0,1.6-1.4,2.9-3,3c-1.7,0-3-1.2-3.1-2.8s1.2-3,2.8-3.2C39.6,32.3,41.2,33.7,41.2,35.5z"/>
			<path class="st0" d="M37.5,10.1c0.9,2.3,0.4,3.4-1.8,3.5c-6.9,0.2-13.5,2.4-19.9,4.7c-2.7,1-5.3,2.3-7.6,4
				c-2.5,1.8-2.7,3.8-0.9,6.3c1.6,2.2,3.6,4.2,5.5,6.1c2.2,2.2,4.5,4.3,6.8,6.5c4.1-2.8,4.5-7.7,7.6-10.9c0.8,0.4,1.6,0.8,2.3,1.2
				c0,0.4,0.1,0.7,0,0.9c-1.4,2.7-2.7,5.4-4.2,7.9c-2.9,4.8-6.5,5.3-10.6,1.3C12.2,39,9.6,36.4,7,33.7c-1.1-1.1-2.1-2.4-2.9-3.7
				c-2.1-3.4-1.8-6.6,1-9.5c1.2-1.3,2.7-2.5,4.3-3.2c8-3.7,16.3-6.3,25.2-7.2C35.5,10,36.5,10.1,37.5,10.1z"/>
			<path class="st0" d="M38,88.4c0.4-1,0.7-2.6,0.7-4.7c-0.5,0.8-1.1,1.5-1.7,1.9c-0.7,0.4-1.4,0.6-2.3,0.6c-1.6,0-3-0.5-4-1.5
				s-1.5-2.3-1.5-4c0-2.2,0.7-4,2.1-5.4s3.4-2.1,5.9-2.1c0.8,0,1.5,0.1,2.1,0.3c0.6,0.2,1,0.5,1.3,0.9c1,0,1.5,0.5,1.5,1.5
				c0,0.6-0.1,1.4-0.3,2.4c-0.2,1.1-0.3,1.9-0.4,2.3L41,84.7c0,1.7-0.2,3-0.5,4.1c-0.4,1.3-1.1,2.3-2,3c-1.1,0.8-2.7,1.2-4.7,1.2
				c-1.2,0-2.2-0.1-3-0.2c-1.1-0.2-1.7-0.6-1.7-1.3c0-0.7,0.4-1.1,1.2-1.1c0.3,0,0.9,0.1,1.6,0.2c0.8,0.1,1.6,0.2,2.5,0.2
				C36.2,90.7,37.3,89.9,38,88.4z M38.7,80.1c0.2-0.9,0.4-2.3,0.6-4.2c-0.4-0.3-0.7-0.4-1.1-0.6c-0.4-0.1-0.8-0.2-1.2-0.2
				c-1.7,0-3,0.5-4,1.6c-0.8,1-1.3,2.2-1.3,3.7c0,1.2,0.3,2.1,0.8,2.7s1.2,0.9,2.2,0.9c0.9,0,1.8-0.5,2.7-1.4
				C38.2,81.8,38.6,81,38.7,80.1z"/>
			<path class="st0" d="M19.5,84.6c1.4,0,2.4-0.4,3.2-1.3c0.7-0.8,1-1.9,1-3.3c0-1.1-0.3-2-1.1-2.6c-0.7-0.6-1.8-0.9-3.2-0.9
				c-0.8,0-1.5,0.1-2.1,0.4c-0.2,0.1-0.8,0.4-1.8,1c-0.1,0.4-0.1,0.9-0.1,1.3c0,1.5,0.3,2.7,0.8,3.6C17,84,18,84.6,19.5,84.6z
				 M22.3,67.7c0,0.3-0.4,0.9-1.4,1.7l-2.8,2.5c-0.7,0.7-1.4,1.7-1.9,3.1c0.8-0.3,1.5-0.6,2.1-0.7c0.6-0.2,1.1-0.3,1.4-0.3
				c2.1,0,3.7,0.5,4.9,1.6c1.1,1,1.7,2.5,1.7,4.4c0,2-0.6,3.6-1.8,4.8c-1.3,1.3-3,1.9-5.1,1.9c-2.4,0-4.1-0.8-5.2-2.4
				c-0.9-1.3-1.4-3-1.4-5.2c0-4.1,1.8-7.6,5.4-10.7l1.3-1.2c0.6-0.5,1.1-0.8,1.4-0.8c0.4,0,0.7,0.1,1,0.4
				C22.2,67.1,22.3,67.4,22.3,67.7z"/>
		</g>
	</g>
</g>
</svg>
